<svg id="visual" viewBox="0 0 900 600" width="900" height="600" xmlns="http://www.w3.org/2000/svg" xmlns:xlink="http://www.w3.org/1999/xlink" version="1.1"><g stroke-width="2" stroke-linejoin="bevel"><path d="M465.9 298L532.7 255L458.9 207Z" fill="#c0e1f9" stroke="#FFFFFF"></path><path d="M532.7 255L501.9 164L458.9 207Z" fill="#76c4f3" stroke="#FFFFFF"></path><path d="M501.9 164L425.1 178L458.9 207Z" fill="#ffffff" stroke="#FFFFFF"></path><path d="M458.9 207L368.1 302L465.9 298Z" fill="#8bcbf5" stroke="#FFFFFF"></path><path d="M465.9 298L563.7 320L532.7 255Z" fill="#d0e9fb" stroke="#FFFFFF"></path><path d="M532.7 255L626.5 219L501.9 164Z" fill="#76c4f3" stroke="#FFFFFF"></path><path d="M425.1 178L368.1 302L458.9 207Z" fill="#9dd3f6" stroke="#FFFFFF"></path><path d="M458.9 392L580.7 353L563.7 320Z" fill="#ffffff" stroke="#FFFFFF"></path><path d="M501.9 164L447.1 122L425.1 178Z" fill="#5ebdf2" stroke="#FFFFFF"></path><path d="M425.1 178L346.3 189L368.1 302Z" fill="#76c4f3" stroke="#FFFFFF"></path><path d="M458.9 392L563.7 320L465.9 298Z" fill="#76c4f3" stroke="#FFFFFF"></path><path d="M632.5 296L626.5 219L532.7 255Z" fill="#d0e9fb" stroke="#FFFFFF"></path><path d="M369.1 365L458.9 392L465.9 298Z" fill="#9dd3f6" stroke="#FFFFFF"></path><path d="M632.5 296L532.7 255L563.7 320Z" fill="#5ebdf2" stroke="#FFFFFF"></path><path d="M501.9 164L505.9 84L447.1 122Z" fill="#e0f0fc" stroke="#FFFFFF"></path><path d="M417.1 106L346.3 189L425.1 178Z" fill="#3fb6f0" stroke="#FFFFFF"></path><path d="M580.7 353L632.5 296L563.7 320Z" fill="#5ebdf2" stroke="#FFFFFF"></path><path d="M447.1 122L417.1 106L425.1 178Z" fill="#afdaf8" stroke="#FFFFFF"></path><path d="M290.5 284L369.1 365L368.1 302Z" fill="#e0f0fc" stroke="#FFFFFF"></path><path d="M368.1 302L369.1 365L465.9 298Z" fill="#9dd3f6" stroke="#FFFFFF"></path><path d="M608.7 109L505.9 84L501.9 164Z" fill="#9dd3f6" stroke="#FFFFFF"></path><path d="M447.1 122L505.9 84L417.1 106Z" fill="#e0f0fc" stroke="#FFFFFF"></path><path d="M346.3 189L293.3 256L368.1 302Z" fill="#c0e1f9" stroke="#FFFFFF"></path><path d="M626.5 219L608.7 109L501.9 164Z" fill="#f0f8fe" stroke="#FFFFFF"></path><path d="M293.3 256L290.5 284L368.1 302Z" fill="#e0f0fc" stroke="#FFFFFF"></path><path d="M368.3 63L329.3 121L417.1 106Z" fill="#8bcbf5" stroke="#FFFFFF"></path><path d="M417.1 106L329.3 121L346.3 189Z" fill="#e0f0fc" stroke="#FFFFFF"></path><path d="M346.3 189L284.5 171L293.3 256Z" fill="#e0f0fc" stroke="#FFFFFF"></path><path d="M507.9 476L529.7 448L458.9 392Z" fill="#8bcbf5" stroke="#FFFFFF"></path><path d="M458.9 392L529.7 448L580.7 353Z" fill="#ffffff" stroke="#FFFFFF"></path><path d="M580.7 353L656.5 396L632.5 296Z" fill="#ffffff" stroke="#FFFFFF"></path><path d="M329.3 121L284.5 171L346.3 189Z" fill="#e0f0fc" stroke="#FFFFFF"></path><path d="M293.3 256L227.5 225L290.5 284Z" fill="#9dd3f6" stroke="#FFFFFF"></path><path d="M626.5 219L644.5 107L608.7 109Z" fill="#d0e9fb" stroke="#FFFFFF"></path><path d="M608.7 109L546.7 28L505.9 84Z" fill="#3fb6f0" stroke="#FFFFFF"></path><path d="M692.5 142L644.5 107L626.5 219Z" fill="#e0f0fc" stroke="#FFFFFF"></path><path d="M387.1 0L368.3 63L417.1 106Z" fill="#3fb6f0" stroke="#FFFFFF"></path><path d="M170.6 106L179.6 205L284.5 171Z" fill="#d0e9fb" stroke="#FFFFFF"></path><path d="M529.7 448L656.5 396L580.7 353Z" fill="#5ebdf2" stroke="#FFFFFF"></path><path d="M733.4 192L692.5 142L626.5 219Z" fill="#3fb6f0" stroke="#FFFFFF"></path><path d="M365.1 461L507.9 476L458.9 392Z" fill="#ffffff" stroke="#FFFFFF"></path><path d="M638.5 486L713.4 412L656.5 396Z" fill="#5ebdf2" stroke="#FFFFFF"></path><path d="M290.5 284L301.3 395L369.1 365Z" fill="#5ebdf2" stroke="#FFFFFF"></path><path d="M369.1 365L365.1 461L458.9 392Z" fill="#d0e9fb" stroke="#FFFFFF"></path><path d="M671.5 0L546.7 28L608.7 109Z" fill="#c0e1f9" stroke="#FFFFFF"></path><path d="M505.9 84L469.9 0L417.1 106Z" fill="#9dd3f6" stroke="#FFFFFF"></path><path d="M733.4 192L626.5 219L632.5 296Z" fill="#f0f8fe" stroke="#FFFFFF"></path><path d="M671.5 0L543.7 0L546.7 28Z" fill="#d0e9fb" stroke="#FFFFFF"></path><path d="M656.5 396L706.4 334L632.5 296Z" fill="#3fb6f0" stroke="#FFFFFF"></path><path d="M337.3 450L365.1 461L369.1 365Z" fill="#e0f0fc" stroke="#FFFFFF"></path><path d="M301.3 395L337.3 450L369.1 365Z" fill="#d0e9fb" stroke="#FFFFFF"></path><path d="M546.7 28L469.9 0L505.9 84Z" fill="#c0e1f9" stroke="#FFFFFF"></path><path d="M179.6 205L227.5 225L284.5 171Z" fill="#5ebdf2" stroke="#FFFFFF"></path><path d="M284.5 171L227.5 225L293.3 256Z" fill="#e0f0fc" stroke="#FFFFFF"></path><path d="M290.5 284L212.5 329L301.3 395Z" fill="#afdaf8" stroke="#FFFFFF"></path><path d="M766.4 281L733.4 192L632.5 296Z" fill="#8bcbf5" stroke="#FFFFFF"></path><path d="M671.5 0L608.7 109L644.5 107Z" fill="#afdaf8" stroke="#FFFFFF"></path><path d="M546.7 28L543.7 0L469.9 0Z" fill="#f0f8fe" stroke="#FFFFFF"></path><path d="M469.9 0L387.1 0L417.1 106Z" fill="#8bcbf5" stroke="#FFFFFF"></path><path d="M368.3 63L281.3 0L329.3 121Z" fill="#f0f8fe" stroke="#FFFFFF"></path><path d="M656.5 396L713.4 412L706.4 334Z" fill="#afdaf8" stroke="#FFFFFF"></path><path d="M706.4 334L766.4 281L632.5 296Z" fill="#c0e1f9" stroke="#FFFFFF"></path><path d="M638.5 486L656.5 396L529.7 448Z" fill="#8bcbf5" stroke="#FFFFFF"></path><path d="M227.5 225L212.5 329L290.5 284Z" fill="#5ebdf2" stroke="#FFFFFF"></path><path d="M301.3 395L287.3 484L337.3 450Z" fill="#3fb6f0" stroke="#FFFFFF"></path><path d="M567.7 550L638.5 486L529.7 448Z" fill="#afdaf8" stroke="#FFFFFF"></path><path d="M775.2 344L766.4 281L706.4 334Z" fill="#9dd3f6" stroke="#FFFFFF"></path><path d="M400.1 568L451.9 553L365.1 461Z" fill="#8bcbf5" stroke="#FFFFFF"></path><path d="M365.1 461L451.9 553L507.9 476Z" fill="#f0f8fe" stroke="#FFFFFF"></path><path d="M507.9 476L567.7 550L529.7 448Z" fill="#afdaf8" stroke="#FFFFFF"></path><path d="M212.5 455L287.3 484L301.3 395Z" fill="#76c4f3" stroke="#FFFFFF"></path><path d="M337.3 450L287.3 484L365.1 461Z" fill="#5ebdf2" stroke="#FFFFFF"></path><path d="M210.5 69L284.5 171L329.3 121Z" fill="#c0e1f9" stroke="#FFFFFF"></path><path d="M227.5 225L138.6 315L212.5 329Z" fill="#c0e1f9" stroke="#FFFFFF"></path><path d="M713.4 412L775.2 344L706.4 334Z" fill="#c0e1f9" stroke="#FFFFFF"></path><path d="M451.9 553L567.7 550L507.9 476Z" fill="#d0e9fb" stroke="#FFFFFF"></path><path d="M705.4 0L671.5 0L644.5 107Z" fill="#3fb6f0" stroke="#FFFFFF"></path><path d="M705.4 0L644.5 107L692.5 142Z" fill="#f0f8fe" stroke="#FFFFFF"></path><path d="M774.4 124L692.5 142L733.4 192Z" fill="#76c4f3" stroke="#FFFFFF"></path><path d="M803.2 212L733.4 192L766.4 281Z" fill="#9dd3f6" stroke="#FFFFFF"></path><path d="M803.2 212L774.4 124L733.4 192Z" fill="#e0f0fc" stroke="#FFFFFF"></path><path d="M387.1 0L281.3 0L368.3 63Z" fill="#76c4f3" stroke="#FFFFFF"></path><path d="M820.2 275L803.2 212L766.4 281Z" fill="#f0f8fe" stroke="#FFFFFF"></path><path d="M281.3 0L210.5 69L329.3 121Z" fill="#f0f8fe" stroke="#FFFFFF"></path><path d="M276.5 507L400.1 568L365.1 461Z" fill="#afdaf8" stroke="#FFFFFF"></path><path d="M451.9 553L510.9 600L567.7 550Z" fill="#e0f0fc" stroke="#FFFFFF"></path><path d="M212.5 455L276.5 507L287.3 484Z" fill="#d0e9fb" stroke="#FFFFFF"></path><path d="M287.3 484L276.5 507L365.1 461Z" fill="#ffffff" stroke="#FFFFFF"></path><path d="M165.6 381L188.6 405L212.5 329Z" fill="#afdaf8" stroke="#FFFFFF"></path><path d="M212.5 329L188.6 405L301.3 395Z" fill="#9dd3f6" stroke="#FFFFFF"></path><path d="M779.4 80L705.4 0L692.5 142Z" fill="#afdaf8" stroke="#FFFFFF"></path><path d="M775.2 344L820.2 275L766.4 281Z" fill="#5ebdf2" stroke="#FFFFFF"></path><path d="M188.6 405L212.5 455L301.3 395Z" fill="#ffffff" stroke="#FFFFFF"></path><path d="M713.4 412L779.2 422L775.2 344Z" fill="#8bcbf5" stroke="#FFFFFF"></path><path d="M900 284L900 268L820.2 275Z" fill="#8bcbf5" stroke="#FFFFFF"></path><path d="M746.4 520L779.2 422L713.4 412Z" fill="#e0f0fc" stroke="#FFFFFF"></path><path d="M746.4 520L713.4 412L638.5 486Z" fill="#f0f8fe" stroke="#FFFFFF"></path><path d="M840.2 172L779.4 80L774.4 124Z" fill="#8bcbf5" stroke="#FFFFFF"></path><path d="M774.4 124L779.4 80L692.5 142Z" fill="#f0f8fe" stroke="#FFFFFF"></path><path d="M840.2 172L774.4 124L803.2 212Z" fill="#9dd3f6" stroke="#FFFFFF"></path><path d="M138.6 315L165.6 381L212.5 329Z" fill="#e0f0fc" stroke="#FFFFFF"></path><path d="M188.6 405L72.8 500L212.5 455Z" fill="#9dd3f6" stroke="#FFFFFF"></path><path d="M210.5 69L170.6 106L284.5 171Z" fill="#f0f8fe" stroke="#FFFFFF"></path><path d="M179.6 205L138.6 315L227.5 225Z" fill="#3fb6f0" stroke="#FFFFFF"></path><path d="M121.6 82L170.6 106L210.5 69Z" fill="#e0f0fc" stroke="#FFFFFF"></path><path d="M281.3 0L241.5 0L210.5 69Z" fill="#f0f8fe" stroke="#FFFFFF"></path><path d="M98.8 280L138.6 315L179.6 205Z" fill="#e0f0fc" stroke="#FFFFFF"></path><path d="M403.1 600L510.9 600L451.9 553Z" fill="#c0e1f9" stroke="#FFFFFF"></path><path d="M567.7 550L658.5 570L638.5 486Z" fill="#ffffff" stroke="#FFFFFF"></path><path d="M345.3 600L403.1 600L400.1 568Z" fill="#ffffff" stroke="#FFFFFF"></path><path d="M400.1 568L403.1 600L451.9 553Z" fill="#f0f8fe" stroke="#FFFFFF"></path><path d="M612.7 600L658.5 570L567.7 550Z" fill="#f0f8fe" stroke="#FFFFFF"></path><path d="M795.2 0L771.2 28L779.4 80Z" fill="#5ebdf2" stroke="#FFFFFF"></path><path d="M779.4 80L771.2 28L705.4 0Z" fill="#c0e1f9" stroke="#FFFFFF"></path><path d="M900 188L840.2 172L803.2 212Z" fill="#3fb6f0" stroke="#FFFFFF"></path><path d="M510.9 600L612.7 600L567.7 550Z" fill="#f0f8fe" stroke="#FFFFFF"></path><path d="M221.5 600L345.3 600L276.5 507Z" fill="#3fb6f0" stroke="#FFFFFF"></path><path d="M276.5 507L345.3 600L400.1 568Z" fill="#76c4f3" stroke="#FFFFFF"></path><path d="M241.5 0L202.6 0L210.5 69Z" fill="#ffffff" stroke="#FFFFFF"></path><path d="M658.5 570L746.4 520L638.5 486Z" fill="#d0e9fb" stroke="#FFFFFF"></path><path d="M700.5 600L746.4 520L658.5 570Z" fill="#5ebdf2" stroke="#FFFFFF"></path><path d="M77.8 217L98.8 280L179.6 205Z" fill="#f0f8fe" stroke="#FFFFFF"></path><path d="M138.6 315L107.8 368L165.6 381Z" fill="#76c4f3" stroke="#FFFFFF"></path><path d="M165.6 381L50.8 458L188.6 405Z" fill="#9dd3f6" stroke="#FFFFFF"></path><path d="M116.8 129L179.6 205L170.6 106Z" fill="#76c4f3" stroke="#FFFFFF"></path><path d="M121.6 82L116.8 129L170.6 106Z" fill="#8bcbf5" stroke="#FFFFFF"></path><path d="M98.8 280L107.8 368L138.6 315Z" fill="#ffffff" stroke="#FFFFFF"></path><path d="M212.5 455L209.6 555L276.5 507Z" fill="#e0f0fc" stroke="#FFFFFF"></path><path d="M202.6 0L121.6 82L210.5 69Z" fill="#3fb6f0" stroke="#FFFFFF"></path><path d="M116.8 129L77.8 217L179.6 205Z" fill="#c0e1f9" stroke="#FFFFFF"></path><path d="M900 34L795.2 0L779.4 80Z" fill="#c0e1f9" stroke="#FFFFFF"></path><path d="M771.2 28L795.2 0L705.4 0Z" fill="#f0f8fe" stroke="#FFFFFF"></path><path d="M0 249L77.8 217L0 194Z" fill="#3fb6f0" stroke="#FFFFFF"></path><path d="M0 408L50.8 458L107.8 368Z" fill="#5ebdf2" stroke="#FFFFFF"></path><path d="M72.8 500L209.6 555L212.5 455Z" fill="#3fb6f0" stroke="#FFFFFF"></path><path d="M612.7 600L700.5 600L658.5 570Z" fill="#3fb6f0" stroke="#FFFFFF"></path><path d="M900 520L828.2 485L850.2 600Z" fill="#d0e9fb" stroke="#FFFFFF"></path><path d="M746.4 520L828.2 485L779.2 422Z" fill="#5ebdf2" stroke="#FFFFFF"></path><path d="M900 284L820.2 275L900 376Z" fill="#afdaf8" stroke="#FFFFFF"></path><path d="M820.2 275L900 268L803.2 212Z" fill="#d0e9fb" stroke="#FFFFFF"></path><path d="M820.2 275L775.2 344L900 376Z" fill="#afdaf8" stroke="#FFFFFF"></path><path d="M840.2 172L900 34L779.4 80Z" fill="#8bcbf5" stroke="#FFFFFF"></path><path d="M700.5 600L713.4 600L746.4 520Z" fill="#5ebdf2" stroke="#FFFFFF"></path><path d="M900 376L775.2 344L779.2 422Z" fill="#d0e9fb" stroke="#FFFFFF"></path><path d="M900 268L900 188L803.2 212Z" fill="#afdaf8" stroke="#FFFFFF"></path><path d="M202.6 0L100.8 47L121.6 82Z" fill="#3fb6f0" stroke="#FFFFFF"></path><path d="M121.6 82L0 63L116.8 129Z" fill="#5ebdf2" stroke="#FFFFFF"></path><path d="M900 410L900 376L779.2 422Z" fill="#76c4f3" stroke="#FFFFFF"></path><path d="M130.6 600L221.5 600L209.6 555Z" fill="#9dd3f6" stroke="#FFFFFF"></path><path d="M209.6 555L221.5 600L276.5 507Z" fill="#d0e9fb" stroke="#FFFFFF"></path><path d="M828.2 485L900 410L779.2 422Z" fill="#ffffff" stroke="#FFFFFF"></path><path d="M900 188L900 34L840.2 172Z" fill="#3fb6f0" stroke="#FFFFFF"></path><path d="M0 324L107.8 368L98.8 280Z" fill="#9dd3f6" stroke="#FFFFFF"></path><path d="M107.8 368L50.8 458L165.6 381Z" fill="#ffffff" stroke="#FFFFFF"></path><path d="M50.8 458L72.8 500L188.6 405Z" fill="#c0e1f9" stroke="#FFFFFF"></path><path d="M0 194L77.8 217L116.8 129Z" fill="#d0e9fb" stroke="#FFFFFF"></path><path d="M77.8 217L0 249L98.8 280Z" fill="#76c4f3" stroke="#FFFFFF"></path><path d="M0 63L0 194L116.8 129Z" fill="#f0f8fe" stroke="#FFFFFF"></path><path d="M900 34L900 0L795.2 0Z" fill="#afdaf8" stroke="#FFFFFF"></path><path d="M0 249L0 324L98.8 280Z" fill="#76c4f3" stroke="#FFFFFF"></path><path d="M72.8 500L130.6 600L209.6 555Z" fill="#ffffff" stroke="#FFFFFF"></path><path d="M850.2 600L828.2 485L746.4 520Z" fill="#3fb6f0" stroke="#FFFFFF"></path><path d="M828.2 485L900 520L900 410Z" fill="#9dd3f6" stroke="#FFFFFF"></path><path d="M202.6 0L46.8 0L100.8 47Z" fill="#76c4f3" stroke="#FFFFFF"></path><path d="M100.8 47L0 63L121.6 82Z" fill="#76c4f3" stroke="#FFFFFF"></path><path d="M713.4 600L850.2 600L746.4 520Z" fill="#9dd3f6" stroke="#FFFFFF"></path><path d="M0 324L0 408L107.8 368Z" fill="#d0e9fb" stroke="#FFFFFF"></path><path d="M50.8 458L0 544L72.8 500Z" fill="#9dd3f6" stroke="#FFFFFF"></path><path d="M72.8 500L101.8 600L130.6 600Z" fill="#9dd3f6" stroke="#FFFFFF"></path><path d="M0 408L0 412L50.8 458Z" fill="#d0e9fb" stroke="#FFFFFF"></path><path d="M0 544L101.8 600L72.8 500Z" fill="#3fb6f0" stroke="#FFFFFF"></path><path d="M46.8 0L0 63L100.8 47Z" fill="#afdaf8" stroke="#FFFFFF"></path><path d="M850.2 600L900 600L900 520Z" fill="#e0f0fc" stroke="#FFFFFF"></path><path d="M46.8 0L0 0L0 63Z" fill="#76c4f3" stroke="#FFFFFF"></path><path d="M0 412L0 544L50.8 458Z" fill="#c0e1f9" stroke="#FFFFFF"></path><path d="M0 544L0 600L101.8 600Z" fill="#c0e1f9" stroke="#FFFFFF"></path></g></svg>